<svg xmlns="http://www.w3.org/2000/svg" viewBox="0 0 1200 800" role="img" aria-hidden="true"><rect width="1200" height="800" rx="48" fill="#F6F8F5"/><defs><filter id="s" x="-20%" y="-20%" width="140%" height="140%"><feDropShadow dx="0" dy="14" stdDeviation="18" flood-opacity=".10"/></filter></defs><rect x="155" y="110" width="890" height="170" rx="28" fill="white" stroke="#DDE3DC" stroke-width="3" filter="url(#s)"/><circle cx="230" cy="170" r="30" fill="#E4F3E4"/><circle cx="230" cy="170" r="11" fill="#107C10"/><rect x="300" y="148" width="520" height="14" rx="7" fill="#6B746B" opacity=".18"/><rect x="300" y="186" width="450" height="14" rx="7" fill="#6B746B" opacity=".18"/><rect x="300" y="224" width="380" height="14" rx="7" fill="#6B746B" opacity=".18"/><rect x="155" y="330" width="890" height="170" rx="28" fill="white" stroke="#DDE3DC" stroke-width="3" filter="url(#s)"/><circle cx="230" cy="390" r="30" fill="#E4F3E4"/><circle cx="230" cy="390" r="11" fill="#107C10"/><rect x="300" y="368" width="520" height="14" rx="7" fill="#6B746B" opacity=".18"/><rect x="300" y="406" width="450" height="14" rx="7" fill="#6B746B" opacity=".18"/><rect x="300" y="444" width="380" height="14" rx="7" fill="#6B746B" opacity=".18"/><rect x="155" y="550" width="890" height="170" rx="28" fill="white" stroke="#DDE3DC" stroke-width="3" filter="url(#s)"/><circle cx="230" cy="610" r="30" fill="#E4F3E4"/><circle cx="230" cy="610" r="11" fill="#107C10"/><rect x="300" y="588" width="520" height="14" rx="7" fill="#6B746B" opacity=".18"/><rect x="300" y="626" width="450" height="14" rx="7" fill="#6B746B" opacity=".18"/><rect x="300" y="664" width="380" height="14" rx="7" fill="#6B746B" opacity=".18"/></svg>